<svg width="24" height="24" viewBox="0 0 24 24" fill="none" xmlns="http://www.w3.org/2000/svg">
<path d="M17.6 5.59999H19.2M7.20005 0.799988H16.8C20.3347 0.799988 23.2 3.66537 23.2 7.19999V16.8C23.2 20.3346 20.3347 23.2 16.8 23.2H7.20005C3.66543 23.2 0.800049 20.3346 0.800049 16.8V7.19999C0.800049 3.66537 3.66543 0.799988 7.20005 0.799988ZM12 16.8C9.34908 16.8 7.20005 14.651 7.20005 12C7.20005 9.34902 9.34908 7.19999 12 7.19999C14.651 7.19999 16.8 9.34902 16.8 12C16.8 14.651 14.651 16.8 12 16.8Z" stroke="#161616"/>
</svg>
