<svg width="90" height="90" viewBox="0 0 90 90" fill="none" xmlns="http://www.w3.org/2000/svg">
<circle cx="45" cy="45" r="45" fill="#161616"/>
<path d="M20.7347 40.9119V39.8182H28.3711V40.9119H25.1694V50H23.9364V40.9119H20.7347ZM29.9956 52.8636C29.7967 52.8636 29.6194 52.8471 29.4636 52.8139C29.3078 52.7841 29.2001 52.7543 29.1404 52.7244L29.4387 51.6903C29.7238 51.7633 29.9757 51.7898 30.1944 51.7699C30.4132 51.75 30.6071 51.6522 30.7761 51.4766C30.9484 51.3042 31.1059 51.0241 31.2484 50.6364L31.4672 50.0398L28.6433 42.3636H29.916L32.024 48.4489H32.1035L34.2115 42.3636H35.4842L32.2427 51.1136C32.0969 51.508 31.9163 51.8345 31.7008 52.093C31.4854 52.3549 31.2351 52.5488 30.9501 52.6747C30.6684 52.8007 30.3502 52.8636 29.9956 52.8636ZM35.5749 52.1875V48.9062H36.2113C36.3671 48.7438 36.5013 48.5682 36.614 48.3793C36.7267 48.1903 36.8245 47.9666 36.9073 47.7081C36.9935 47.4463 37.0664 47.1281 37.1261 46.7536C37.1857 46.3757 37.2388 45.92 37.2852 45.3864L37.5437 42.3636H42.396V48.9062H43.5692V52.1875H42.396V50H36.7482V52.1875H35.5749ZM37.5437 48.9062H41.2227V43.4574H38.6374L38.4386 45.3864C38.3557 46.1851 38.253 46.8828 38.1303 47.4794C38.0077 48.076 37.8121 48.5516 37.5437 48.9062ZM47.3738 50.179C46.8899 50.179 46.4507 50.0878 46.0563 49.9055C45.6619 49.7199 45.3487 49.4531 45.1167 49.1051C44.8846 48.7538 44.7686 48.3295 44.7686 47.8324C44.7686 47.3949 44.8548 47.0402 45.0272 46.7685C45.1995 46.4934 45.4299 46.2779 45.7182 46.1222C46.0066 45.9664 46.3248 45.8504 46.6728 45.7741C47.0241 45.6946 47.3771 45.6316 47.7317 45.5852C48.1957 45.5256 48.5719 45.4808 48.8603 45.451C49.1519 45.4179 49.3641 45.3632 49.4966 45.2869C49.6325 45.2107 49.7005 45.0781 49.7005 44.8892V44.8494C49.7005 44.3589 49.5662 43.9777 49.2978 43.706C49.0326 43.4342 48.6299 43.2983 48.0897 43.2983C47.5295 43.2983 47.0904 43.4209 46.7722 43.6662C46.454 43.9115 46.2303 44.1733 46.101 44.4517L44.9874 44.054C45.1863 43.59 45.4514 43.2287 45.7828 42.9702C46.1176 42.7083 46.4822 42.526 46.8766 42.4233C47.2743 42.3172 47.6654 42.2642 48.0499 42.2642C48.2952 42.2642 48.5769 42.294 48.8951 42.3537C49.2166 42.41 49.5265 42.5277 49.8248 42.7067C50.1264 42.8857 50.3766 43.1558 50.5755 43.517C50.7743 43.8783 50.8738 44.3622 50.8738 44.9688V50H49.7005V48.9659H49.6408C49.5613 49.1316 49.4287 49.3089 49.2431 49.4979C49.0575 49.6868 48.8105 49.8475 48.5023 49.9801C48.1941 50.1127 47.8179 50.179 47.3738 50.179ZM47.5527 49.125C48.0167 49.125 48.4078 49.0339 48.726 48.8516C49.0475 48.6693 49.2895 48.4339 49.4519 48.1456C49.6176 47.8572 49.7005 47.554 49.7005 47.2358V46.1619C49.6507 46.2216 49.5414 46.2763 49.3723 46.326C49.2066 46.3724 49.0144 46.4138 48.7956 46.4503C48.5802 46.4834 48.3697 46.5133 48.1642 46.5398C47.9621 46.563 47.798 46.5829 47.6721 46.5994C47.3671 46.6392 47.0821 46.7038 46.8169 46.7933C46.5551 46.8795 46.343 47.0104 46.1806 47.1861C46.0215 47.3584 45.9419 47.5937 45.9419 47.892C45.9419 48.2997 46.0927 48.608 46.3944 48.8168C46.6993 49.0223 47.0854 49.125 47.5527 49.125Z" fill="white"/>
<path d="M60 35L70 45L60 55" stroke="white"/>
</svg>
