<svg width="90" height="90" viewBox="0 0 90 90" fill="none" xmlns="http://www.w3.org/2000/svg">
<circle cx="45" cy="45" r="45" fill="#161616"/>
<path d="M44.8334 43H43.6004C43.5275 42.6454 43.3999 42.3338 43.2176 42.0653C43.0386 41.7969 42.8199 41.5715 42.5613 41.3892C42.3061 41.2036 42.0228 41.0644 41.7112 40.9716C41.3997 40.8788 41.0748 40.8324 40.7368 40.8324C40.1203 40.8324 39.5618 40.9882 39.0613 41.2997C38.5642 41.6113 38.1681 42.0703 37.8731 42.6768C37.5815 43.2834 37.4356 44.0275 37.4356 44.9091C37.4356 45.7907 37.5815 46.5348 37.8731 47.1413C38.1681 47.7479 38.5642 48.2069 39.0613 48.5185C39.5618 48.83 40.1203 48.9858 40.7368 48.9858C41.0748 48.9858 41.3997 48.9394 41.7112 48.8466C42.0228 48.7538 42.3061 48.6162 42.5613 48.4339C42.8199 48.2483 43.0386 48.0213 43.2176 47.7528C43.3999 47.4811 43.5275 47.1695 43.6004 46.8182H44.8334C44.7406 47.3385 44.5715 47.8042 44.3263 48.2152C44.081 48.6262 43.7761 48.9759 43.4115 49.2642C43.0469 49.5492 42.6376 49.7663 42.1835 49.9155C41.7327 50.0646 41.2505 50.1392 40.7368 50.1392C39.8684 50.1392 39.0961 49.9271 38.42 49.5028C37.7439 49.0786 37.2119 48.4754 36.8241 47.6932C36.4363 46.911 36.2425 45.983 36.2425 44.9091C36.2425 43.8352 36.4363 42.9072 36.8241 42.125C37.2119 41.3428 37.7439 40.7396 38.42 40.3153C39.0961 39.8911 39.8684 39.679 40.7368 39.679C41.2505 39.679 41.7327 39.7536 42.1835 39.9027C42.6376 40.0518 43.0469 40.2706 43.4115 40.5589C43.7761 40.844 44.081 41.192 44.3263 41.603C44.5715 42.0107 44.7406 42.4763 44.8334 43ZM50.3257 45.7045V46.7983H46.2888V45.7045H50.3257ZM47.2831 42.3636V50H46.1098V42.3636H47.2831ZM52.6723 50.1591C51.9829 50.1591 51.378 49.995 50.8577 49.6669C50.3406 49.3388 49.9363 48.8797 49.6446 48.2898C49.3563 47.6998 49.2121 47.0104 49.2121 46.2216C49.2121 45.4261 49.3563 44.7318 49.6446 44.1385C49.9363 43.5452 50.3406 43.0845 50.8577 42.7564C51.378 42.4283 51.9829 42.2642 52.6723 42.2642C53.3617 42.2642 53.9649 42.4283 54.482 42.7564C55.0023 43.0845 55.4067 43.5452 55.695 44.1385C55.9867 44.7318 56.1325 45.4261 56.1325 46.2216C56.1325 47.0104 55.9867 47.6998 55.695 48.2898C55.4067 48.8797 55.0023 49.3388 54.482 49.6669C53.9649 49.995 53.3617 50.1591 52.6723 50.1591ZM52.6723 49.1051C53.196 49.1051 53.6269 48.9709 53.9649 48.7024C54.303 48.4339 54.5532 48.081 54.7156 47.6435C54.878 47.206 54.9593 46.732 54.9593 46.2216C54.9593 45.7112 54.878 45.2356 54.7156 44.7947C54.5532 44.3539 54.303 43.9976 53.9649 43.7259C53.6269 43.4541 53.196 43.3182 52.6723 43.3182C52.1486 43.3182 51.7178 43.4541 51.3797 43.7259C51.0416 43.9976 50.7914 44.3539 50.629 44.7947C50.4666 45.2356 50.3854 45.7112 50.3854 46.2216C50.3854 46.732 50.4666 47.206 50.629 47.6435C50.7914 48.081 51.0416 48.4339 51.3797 48.7024C51.7178 48.9709 52.1486 49.1051 52.6723 49.1051ZM57.2263 52.1875V48.9062H57.8627C58.0184 48.7438 58.1527 48.5682 58.2654 48.3793C58.378 48.1903 58.4758 47.9666 58.5587 47.7081C58.6449 47.4463 58.7178 47.1281 58.7774 46.7536C58.8371 46.3757 58.8901 45.92 58.9365 45.3864L59.195 42.3636H64.0473V48.9062H65.2206V52.1875H64.0473V50H58.3996V52.1875H57.2263ZM59.195 48.9062H62.874V43.4574H60.2888L60.0899 45.3864C60.0071 46.1851 59.9043 46.8828 59.7817 47.4794C59.6591 48.076 59.4635 48.5516 59.195 48.9062ZM69.0251 50.179C68.5412 50.179 68.1021 50.0878 67.7077 49.9055C67.3132 49.7199 67 49.4531 66.768 49.1051C66.536 48.7538 66.42 48.3295 66.42 47.8324C66.42 47.3949 66.5062 47.0402 66.6785 46.7685C66.8509 46.4934 67.0812 46.2779 67.3696 46.1222C67.6579 45.9664 67.9761 45.8504 68.3241 45.7741C68.6755 45.6946 69.0284 45.6316 69.3831 45.5852C69.8471 45.5256 70.2233 45.4808 70.5116 45.451C70.8033 45.4179 71.0154 45.3632 71.148 45.2869C71.2839 45.2107 71.3518 45.0781 71.3518 44.8892V44.8494C71.3518 44.3589 71.2176 43.9777 70.9491 43.706C70.684 43.4342 70.2813 43.2983 69.741 43.2983C69.1809 43.2983 68.7417 43.4209 68.4236 43.6662C68.1054 43.9115 67.8817 44.1733 67.7524 44.4517L66.6388 44.054C66.8376 43.59 67.1028 43.2287 67.4342 42.9702C67.769 42.7083 68.1336 42.526 68.528 42.4233C68.9257 42.3172 69.3168 42.2642 69.7013 42.2642C69.9465 42.2642 70.2282 42.294 70.5464 42.3537C70.8679 42.41 71.1778 42.5277 71.4761 42.7067C71.7777 42.8857 72.028 43.1558 72.2268 43.517C72.4257 43.8783 72.5251 44.3622 72.5251 44.9688V50H71.3518V48.9659H71.2922C71.2126 49.1316 71.08 49.3089 70.8944 49.4979C70.7088 49.6868 70.4619 49.8475 70.1537 49.9801C69.8454 50.1127 69.4693 50.179 69.0251 50.179ZM69.2041 49.125C69.6681 49.125 70.0592 49.0339 70.3774 48.8516C70.6989 48.6693 70.9408 48.4339 71.1032 48.1456C71.269 47.8572 71.3518 47.554 71.3518 47.2358V46.1619C71.3021 46.2216 71.1927 46.2763 71.0237 46.326C70.858 46.3724 70.6657 46.4138 70.447 46.4503C70.2316 46.4834 70.0211 46.5133 69.8156 46.5398C69.6134 46.563 69.4494 46.5829 69.3234 46.5994C69.0185 46.6392 68.7335 46.7038 68.4683 46.7933C68.2065 46.8795 67.9943 47.0104 67.8319 47.1861C67.6729 47.3584 67.5933 47.5937 67.5933 47.892C67.5933 48.2997 67.7441 48.608 68.0457 48.8168C68.3506 49.0223 68.7368 49.125 69.2041 49.125Z" fill="white"/>
<path d="M27 35L17 45L27 55" stroke="white"/>
</svg>
